<svg width="32" height="28" viewBox="0 0 32 28" fill="none" xmlns="http://www.w3.org/2000/svg">
<path d="M16 12.4812V0L32 27.7125H24.7937L16 12.4812Z" fill="url(#paint0_linear_69_51)"/>
<path d="M7.20625 27.7125H0L16 0V12.4812L7.20625 27.7125Z" fill="url(#paint1_linear_69_51)"/>
<path d="M16 21.875L12.6312 27.7125H16H19.3687L16 21.875Z" fill="url(#paint2_linear_69_51)"/>
<path d="M27.2687 19.5126C26.1187 21.3563 24.525 22.8938 22.6437 23.9813L24.7937 27.7126H32L27.2687 19.5126Z" fill="url(#paint3_linear_69_51)"/>
<path d="M4.73125 19.5126L0 27.7126H7.20625L9.35625 23.9813C7.475 22.8938 5.8875 21.3563 4.73125 19.5126Z" fill="url(#paint4_linear_69_51)"/>
<path d="M13.8562 25.5875L12.6312 27.7125H16H19.3687L18.1437 25.5875C17.4437 25.7 16.7312 25.7625 16 25.7625C15.2687 25.7625 14.5562 25.7 13.8562 25.5875Z" fill="url(#paint5_linear_69_51)"/>
<path d="M25.1139 27.2659L16.5077 12.291L16.3935 12.3566L24.9998 27.3315L25.1139 27.2659Z" fill="#00588C"/>
<path d="M31.283 27.2879L16.5049 1.57397L16.3907 1.6396L31.1688 27.3535L31.283 27.2879Z" fill="#00588C"/>
<path d="M15.6068 1.63899L15.4926 1.57336L0.714492 27.2873L0.828679 27.3529L15.6068 1.63899Z" fill="#00588C"/>
<path d="M15.6071 12.3566L15.4929 12.291L6.88667 27.2659L7.00086 27.3315L15.6071 12.3566Z" fill="#00588C"/>
<defs>
<linearGradient id="paint0_linear_69_51" x1="16" y1="13.8562" x2="32" y2="13.8562" gradientUnits="userSpaceOnUse">
<stop stop-color="#1C5D7E"/>
<stop offset="0.6228" stop-color="#09264F"/>
<stop offset="1" stop-color="#000F37"/>
</linearGradient>
<linearGradient id="paint1_linear_69_51" x1="0" y1="13.8562" x2="16" y2="13.8562" gradientUnits="userSpaceOnUse">
<stop stop-color="#1C5D7E"/>
<stop offset="0.6228" stop-color="#09264F"/>
<stop offset="1" stop-color="#000F37"/>
</linearGradient>
<linearGradient id="paint2_linear_69_51" x1="16" y1="27.7127" x2="16" y2="17.7943" gradientUnits="userSpaceOnUse">
<stop stop-color="#1C5D7E"/>
<stop offset="0.6228" stop-color="#09264F"/>
<stop offset="1" stop-color="#000F37"/>
</linearGradient>
<linearGradient id="paint3_linear_69_51" x1="23.6493" y1="22.2389" x2="32.2826" y2="27.2233" gradientUnits="userSpaceOnUse">
<stop stop-color="#000F37"/>
<stop offset="0.3772" stop-color="#09264F"/>
<stop offset="1" stop-color="#1C5D7E"/>
</linearGradient>
<linearGradient id="paint4_linear_69_51" x1="2.77902" y1="29.1397" x2="7.77216" y2="20.4913" gradientUnits="userSpaceOnUse">
<stop stop-color="#1C5D7E"/>
<stop offset="0.6228" stop-color="#09264F"/>
<stop offset="1" stop-color="#000F37"/>
</linearGradient>
<linearGradient id="paint5_linear_69_51" x1="16" y1="25.5888" x2="16" y2="27.7127" gradientUnits="userSpaceOnUse">
<stop stop-color="#000F37"/>
<stop offset="0.3772" stop-color="#09264F"/>
<stop offset="1" stop-color="#1C5D7E"/>
</linearGradient>
</defs>
</svg>
